<svg width="267" height="220" viewBox="0 0 267 220" fill="none" xmlns="http://www.w3.org/2000/svg">
<path d="M98 81.2358V9.24461C98 6.70238 98.8851 4.52532 100.655 2.7134C102.422 0.904574 104.548 0.000158691 107.031 0.000158691L257.969 0C260.452 0 262.579 0.904415 264.349 2.71325C266.116 4.52516 267 6.70223 267 9.24445V64.7111C267 67.2534 266.116 69.4304 264.349 71.2424C262.579 73.0512 260.452 73.9556 257.969 73.9556L116.063 73.9558L105.677 84.5869C104.247 86.0506 102.609 86.3772 100.764 85.5668C98.9212 84.7594 98 83.3158 98 81.2358Z" fill="#85CDF2"/>
<path d="M148.984 26.44V49H142.712V39.944H135.064V49H128.792V26.44H135.064V34.92H142.712V26.44H148.984ZM155.741 29.384C154.632 29.384 153.736 29.0853 153.053 28.488C152.392 27.8693 152.061 27.1013 152.061 26.184C152.061 25.2453 152.392 24.4667 153.053 23.848C153.736 23.2293 154.632 22.92 155.741 22.92C156.829 22.92 157.704 23.2293 158.365 23.848C159.048 24.4667 159.389 25.2453 159.389 26.184C159.389 27.1013 159.048 27.8693 158.365 28.488C157.704 29.0853 156.829 29.384 155.741 29.384ZM158.845 31.048V49H152.573V31.048H158.845ZM170.801 25.288L170.065 40.552H164.721L163.985 25.288H170.801ZM167.409 49.256C166.3 49.256 165.404 48.9573 164.721 48.36C164.06 47.7413 163.729 46.9627 163.729 46.024C163.729 45.0853 164.06 44.3067 164.721 43.688C165.404 43.0693 166.3 42.76 167.409 42.76C168.497 42.76 169.372 43.0693 170.033 43.688C170.716 44.3067 171.057 45.0853 171.057 46.024C171.057 46.9413 170.716 47.7093 170.033 48.328C169.372 48.9467 168.497 49.256 167.409 49.256Z" fill="white" fill-opacity="0.8"/>
<g clip-path="url(#clip0_18_4)">
<path d="M61.5733 124.985C40.9071 140.62 30.7158 162.952 30.7158 188.498C30.7158 230.67 62.0696 266.146 107.62 266.146C153.171 266.146 184.277 232.402 184.277 187.509C184.277 162.704 174.068 141.61 154.66 124.985L165.365 110.851C188.513 129.207 200.707 156.256 200.707 188.746C200.707 248.284 158.648 284.75 106.132 284.75C53.6152 284.75 13.293 244.062 13.293 188.746C13.293 155.991 26.2316 128.465 50.868 110.851L61.5733 124.985V124.985Z" fill="#85CDF2"/>
<path d="M214 188.728C214 220.9 203.064 248.496 182.38 268.566C162.813 287.541 135.731 298 106.132 298C45.6217 298 0 251.023 0 188.728C0 151.433 15.3136 119.95 43.1226 100.074L53.6684 92.53L80.1658 127.546L69.6023 135.532C52.8531 148.199 43.9911 166.52 43.9911 188.498C43.9911 225.211 71.3392 252.896 107.603 252.896C143.866 252.896 170.966 225.388 170.966 187.509C170.966 166.891 162.565 149.242 145.975 135.037L136.511 126.928L162.973 92L173.642 100.463C200.051 121.398 214 151.927 214 188.728Z" fill="#85CDF2"/>
<path d="M79.9531 194.788C89.6244 194.788 97.4645 186.973 97.4645 177.333C97.4645 167.693 89.6244 159.878 79.9531 159.878C70.2819 159.878 62.4418 167.693 62.4418 177.333C62.4418 186.973 70.2819 194.788 79.9531 194.788Z" fill="#85CDF2"/>
<path d="M134.047 194.788C143.718 194.788 151.558 186.973 151.558 177.333C151.558 167.693 143.718 159.878 134.047 159.878C124.376 159.878 116.536 167.693 116.536 177.333C116.536 186.973 124.376 194.788 134.047 194.788Z" fill="#85CDF2"/>
</g>
<defs>
<clipPath id="clip0_18_4">
<rect width="214" height="206" fill="white" transform="translate(0 92)"/>
</clipPath>
</defs>
</svg>
