<svg width="299" height="68" viewBox="0 0 299 68" fill="none" xmlns="http://www.w3.org/2000/svg">
<g clip-path="url(#clip0_5_137)">
<path d="M110.824 24.2962C113.936 27.6472 115.492 32.2428 115.492 38.1001V63.8831H101.814V39.9192C101.814 36.968 101.036 34.6758 99.4798 33.0369C97.9238 31.4037 95.8301 30.587 93.2044 30.587C90.5786 30.587 88.4849 31.4037 86.929 33.0369C85.373 34.6702 84.595 36.968 84.595 39.9192V63.8831H70.8314V5.35034H84.595V25.676C85.9908 23.7274 87.8957 22.1729 90.3098 21.0071C92.7238 19.8469 95.4296 19.2669 98.4386 19.2669C103.587 19.2669 107.717 20.9395 110.829 24.2905L110.824 24.2962Z" fill="#FEA0DC"/>
<path d="M121.847 29.2298C123.586 25.8055 125.954 23.1642 128.958 21.3225C131.955 19.4752 135.302 18.5516 138.997 18.5516C142.155 18.5516 144.929 19.1824 147.315 20.4496C149.695 21.7168 151.531 23.3782 152.818 25.4338V19.188H166.553V63.3142H152.818V57.0684C151.479 59.1241 149.62 60.7855 147.235 62.0527C144.849 63.3199 142.081 63.9506 138.923 63.9506C135.279 63.9506 131.961 63.0157 128.963 61.1403C125.966 59.2705 123.592 56.6066 121.853 53.1542C120.114 49.7018 119.244 45.7088 119.244 41.1751C119.244 36.6414 120.114 32.6596 121.853 29.2298H121.847ZM149.963 33.2622C148.064 31.3136 145.747 30.3336 143.013 30.3336C140.279 30.3336 137.962 31.2967 136.063 33.2228C134.163 35.1489 133.208 37.7959 133.208 41.1695C133.208 44.543 134.158 47.2182 136.063 49.195C137.962 51.1718 140.279 52.163 143.013 52.163C145.747 52.163 148.058 51.1887 149.963 49.2344C151.863 47.2857 152.818 44.6218 152.818 41.2483C152.818 37.8748 151.868 35.2109 149.963 33.2622Z" fill="#FEA0DC"/>
<path d="M194.629 51.8476V63.3142H187.639C182.656 63.3142 178.772 62.1146 175.992 59.7154C173.206 57.3162 171.816 53.402 171.816 47.9728V30.4125H166.353V19.1824H171.816V8.42538H185.551V19.1824H194.549V30.4125H185.551V48.1305C185.551 49.4484 185.871 50.4002 186.517 50.9803C187.158 51.5604 188.234 51.8476 189.732 51.8476H194.635H194.629Z" fill="#FEA0DC"/>
<path d="M220.955 51.8476V63.3142H213.965C208.982 63.3142 205.098 62.1146 202.318 59.7154C199.532 57.3162 198.142 53.402 198.142 47.9728V30.4125H192.678V19.1824H198.142V8.42538H211.877V19.1824H220.875V30.4125H211.877V48.1305C211.877 49.4484 212.197 50.4002 212.843 50.9803C213.484 51.5604 214.559 51.8476 216.058 51.8476H220.961H220.955Z" fill="#FEA0DC"/>
<path d="M290.968 21.3676C293.377 19.9709 296.054 19.2725 299 19.2725V33.5889H295.224C291.798 33.5889 289.224 34.3154 287.513 35.7628C285.797 37.2158 284.945 39.7558 284.945 43.3941V63.8774H271.21V19.7456H284.945V27.1009C286.552 24.6735 288.56 22.7643 290.968 21.3676Z" fill="#FEA0DC"/>
<path d="M56.021 19.5653C50.9584 12.9985 43.7277 9.76013 35.4558 9.76013C21.8009 9.76013 10.3141 19.723 10.3141 34.1971C10.3141 48.6712 21.2403 58.5552 35.7761 58.5552C43.8077 58.5552 50.638 55.3112 56.021 49.1443L60.5975 52.546C54.6538 59.9013 45.8957 63.776 35.3757 63.776C16.0976 63.776 4.29041 50.4114 4.29041 33.724C4.29041 17.0366 17.4648 4.22394 35.3757 4.22394C45.9815 4.22394 54.8941 8.33525 60.5975 16.1636L56.021 19.5653Z" fill="#FEA0DC"/>
<path d="M35.3757 68C24.9586 68 16.0232 64.5251 9.52466 57.9526C3.38655 51.735 0 43.1294 0 33.724C0 14.4966 15.2109 0 35.3757 0C47.4517 0 57.6514 4.86599 64.087 13.7025L66.5296 17.0535L55.1916 25.4732L52.6059 22.1166C48.5043 16.7944 42.5721 13.9785 35.4558 13.9785C23.5685 13.9785 14.6045 22.6685 14.6045 34.1915C14.6045 45.7144 23.5113 54.3257 35.7761 54.3257C42.452 54.3257 48.1668 51.6561 52.7661 46.3846L55.3918 43.3772L66.7012 51.7744L63.9611 55.1648C57.1823 63.5564 47.2972 67.9887 35.3814 67.9887L35.3757 68Z" fill="#FEA0DC"/>
<path d="M265.135 29.8661C263.23 26.5433 260.592 23.9864 257.217 22.1955C253.848 20.4045 249.987 19.5034 245.65 19.5034C241.314 19.5034 237.27 20.427 233.843 22.2743C230.417 24.1216 227.751 26.7573 225.846 30.1815C223.947 33.6114 222.997 37.6157 222.997 42.2057C222.997 43.1688 223.043 44.1037 223.129 45.0161H267.789C267.92 43.7996 267.983 42.6225 267.983 41.4905C267.983 37.0638 267.034 33.189 265.135 29.8661ZM251.154 36.5513C249.575 37.8691 247.635 38.5281 245.33 38.5281C243.025 38.5281 240.914 37.841 239.306 36.4724C237.699 35.0982 236.892 33.2566 236.892 30.9362H254.088C253.711 33.358 252.732 35.2334 251.154 36.5513ZM252.893 47.3871C252.813 48.0686 252.515 49.7356 251.165 51.2112C249.277 53.2725 246.737 53.4189 246.017 53.464C245.261 53.509 242.63 53.6667 240.491 51.735C238.614 50.0454 238.328 47.8546 238.271 47.2688H223.38C223.621 48.7838 224.153 51.0197 225.423 53.464C228.02 58.4651 232.036 61.0783 233.923 62.1315C238.809 64.8574 243.362 64.9081 245.65 64.9024C247.859 64.9024 251.497 64.8517 255.53 62.9256C261.525 60.0646 264.316 54.9902 265.466 52.9008C266.691 50.6818 267.366 48.6768 267.755 47.2688L252.893 47.3871Z" fill="#FEA0DC"/>
<path d="M26.5718 36.9061C29.6932 36.9061 32.2237 34.4148 32.2237 31.3417C32.2237 28.2686 29.6932 25.7774 26.5718 25.7774C23.4504 25.7774 20.9199 28.2686 20.9199 31.3417C20.9199 34.4148 23.4504 36.9061 26.5718 36.9061Z" fill="#FEA0DC"/>
<path d="M44.0365 36.9061C47.158 36.9061 49.6884 34.4148 49.6884 31.3417C49.6884 28.2686 47.158 25.7774 44.0365 25.7774C40.9151 25.7774 38.3846 28.2686 38.3846 31.3417C38.3846 34.4148 40.9151 36.9061 44.0365 36.9061Z" fill="#FEA0DC"/>
</g>
<defs>
<clipPath id="clip0_5_137">
<rect width="299" height="68" fill="white"/>
</clipPath>
</defs>
</svg>
