<svg width="415" height="432" viewBox="0 0 415 432" fill="none" xmlns="http://www.w3.org/2000/svg">
<g style="mix-blend-mode:overlay" opacity="0.25" clip-path="url(#clip0_5_165)">
<path d="M66.4498 307.702C97.9486 349.421 142.937 369.994 194.402 369.994C279.36 369.994 350.828 306.701 350.828 214.748C350.828 122.795 282.848 60.002 192.409 60.002C142.438 60.002 99.9417 80.6109 66.4498 119.789L37.9764 98.1786C74.9563 51.4507 129.447 26.8345 194.901 26.8345C314.845 26.8345 388.306 111.739 388.306 217.753C388.306 323.767 306.338 405.165 194.901 405.165C128.913 405.165 73.4614 379.047 37.9764 329.313L66.4498 307.702V307.702Z" fill="white"/>
<path d="M194.865 -1.43404e-05C259.678 -1.71735e-05 315.272 22.0758 355.704 63.8303C393.93 103.331 415 158.002 415 217.753C415 339.904 320.361 432 194.865 432C119.731 432 56.3062 401.087 16.2654 344.949L1.06775 323.66L71.6106 270.17L87.6981 291.494C113.217 325.306 150.126 343.196 194.402 343.196C268.362 343.196 324.134 287.988 324.134 214.783C324.134 141.579 268.718 86.8723 192.409 86.8723C150.873 86.8723 115.317 103.832 86.7015 137.321L70.3649 156.427L-1.43807e-05 103.009L17.0484 81.4696C59.2247 28.1583 120.727 -1.10997e-05 194.865 -1.43404e-05Z" fill="white"/>
<path d="M141.309 251.165C160.832 251.165 176.659 235.421 176.659 216C176.659 196.579 160.832 180.835 141.309 180.835C121.786 180.835 105.959 196.579 105.959 216C105.959 235.421 121.786 251.165 141.309 251.165Z" fill="white"/>
<path d="M250.507 251.165C270.031 251.165 285.857 235.421 285.857 216C285.857 196.579 270.031 180.835 250.507 180.835C230.984 180.835 215.157 196.579 215.157 216C215.157 235.421 230.984 251.165 250.507 251.165Z" fill="white"/>
</g>
<defs>
<clipPath id="clip0_5_165">
<rect width="432" height="415" fill="white" transform="translate(0 432) rotate(-90)"/>
</clipPath>
</defs>
</svg>
